<?xml version="1.0" encoding="UTF-8" standalone="no"?>
<svg width="34px" height="24px" viewBox="0 0 34 24" version="1.1" xmlns="http://www.w3.org/2000/svg" xmlns:xlink="http://www.w3.org/1999/xlink">
    <!-- Generator: Sketch 43.1 (39012) - http://www.bohemiancoding.com/sketch -->
    <title>fahrenheit</title>
    <desc>Created with Sketch.</desc>
    <defs></defs>
    <g id="Page-1" stroke="none" stroke-width="1" fill="none" fill-rule="evenodd">
        <g id="weather-app" transform="translate(-267.000000, -523.000000)" fill-rule="nonzero" fill="#FFFFFF">
            <g id="Unit-icons" transform="translate(267.000000, 523.000000)">
                <g id="fahrenheit">
                    <path d="M29.998,8.001 C29.998,5.792 28.207,4.001 25.998,4.001 C23.789,4.001 21.998,5.792 21.998,8.001 L21.998,12 L29.998,12 L29.998,16 L21.998,16 L21.998,23.999 L18,23.999 L18,16 L18,12 L18,8.001 C18,3.583 21.581,0.002 25.999,0.002 C30.417,0.002 33.999,3.583 33.999,8.001 L29.998,8.001 Z M7,14 C3.135,14 0.002,10.866 0.002,7.001 C0.002,3.136 3.135,0.002 7,0.002 C10.865,0.002 14,3.136 14,7.001 C14,10.866 10.866,14 7,14 Z M7,4.001 C5.344,4.001 4.001,5.345 4.001,7.001 C4.001,8.657 5.344,10.001 7,10.001 C8.657,10.001 10,8.657 10,7.001 C10,5.345 8.658,4.001 7,4.001 Z" id="Shape"></path>
                </g>
            </g>
        </g>
    </g>
</svg>