<?xml version="1.0" encoding="UTF-8" standalone="no"?>
<svg width="44px" height="31px" viewBox="0 0 44 31" version="1.1" xmlns="http://www.w3.org/2000/svg" xmlns:xlink="http://www.w3.org/1999/xlink">
    <!-- Generator: Sketch 43.1 (39012) - http://www.bohemiancoding.com/sketch -->
    <title>fog</title>
    <desc>Created with Sketch.</desc>
    <defs></defs>
    <g id="Page-1" stroke="none" stroke-width="1" fill="none" fill-rule="evenodd">
        <g id="weather-app" transform="translate(-147.000000, -317.000000)" fill-rule="nonzero" fill="#FFFFFF">
            <g id="Weather-Icons" transform="translate(141.000000, 308.000000)">
                <g id="fog" transform="translate(6.000000, 9.000000)">
                    <path d="M1.177,22.641 C0.915,21.995 0.704,21.326 0.529,20.641 L43.999,20.641 C43.999,21.325 43.929,21.989 43.818,22.641 L1.177,22.641 Z M8.263,2.643 C10.557,1.372 13.193,0.644 16.001,0.644 C18.807,0.644 21.437,1.374 23.728,2.643 L8.263,2.643 Z M0.142,14.642 C0.227,13.96 0.36,13.295 0.529,12.643 L40.925,12.643 C41.476,13.256 41.964,13.924 42.38,14.642 L0.142,14.642 Z M1.177,10.643 C1.458,9.95 1.79,9.284 2.161,8.643 L29.843,8.643 C29.883,8.711 29.927,8.778 29.966,8.848 C30.63,8.734 31.304,8.643 31.999,8.643 C34.45,8.643 36.728,9.381 38.626,10.643 L1.177,10.643 Z M3.524,6.643 C4.104,5.92 4.749,5.255 5.444,4.643 L26.566,4.643 C27.256,5.253 27.892,5.923 28.469,6.643 L3.524,6.643 Z M43.817,18.641 L0.142,18.641 C0.06,17.985 0.003,17.321 0.003,16.642 L43.301,16.642 C43.528,17.285 43.702,17.953 43.817,18.641 Z M43.301,24.641 C43.054,25.34 42.746,26.008 42.38,26.641 L3.524,26.641 C3.019,26.012 2.567,25.342 2.161,24.641 L43.301,24.641 Z M5.444,28.641 L40.924,28.641 C40.244,29.399 39.477,30.075 38.625,30.64 L8.263,30.64 C7.247,30.078 6.309,29.4 5.444,28.641 Z" id="Shape"></path>
                </g>
            </g>
        </g>
    </g>
</svg>