<?xml version="1.0" encoding="UTF-8" standalone="no"?>
<svg width="47px" height="47px" viewBox="0 0 47 47" version="1.1" xmlns="http://www.w3.org/2000/svg" xmlns:xlink="http://www.w3.org/1999/xlink">
    <!-- Generator: Sketch 43.1 (39012) - http://www.bohemiancoding.com/sketch -->
    <title>sleet</title>
    <desc>Created with Sketch.</desc>
    <defs></defs>
    <g id="Page-1" stroke="none" stroke-width="1" fill="none" fill-rule="evenodd">
        <g id="weather-app" transform="translate(-153.000000, -309.000000)" fill-rule="nonzero" fill="#FFFFFF">
            <g id="Weather-Icons" transform="translate(141.000000, 308.000000)">
                <g id="sleet" transform="translate(12.000000, 1.000000)">
                    <path d="M44.997,38.639 C43.893,38.639 42.998,37.744 42.998,36.639 C42.998,35.535 43.893,34.639 44.997,34.639 C46.101,34.639 46.997,35.535 46.997,36.639 C46.997,37.744 46.102,38.639 44.997,38.639 Z M35.998,31.941 L35.998,27.56 C38.387,26.177 39.998,23.599 39.998,20.64 C39.998,16.223 36.417,12.641 31.999,12.641 C30.398,12.641 28.916,13.121 27.665,13.932 C26.434,8.615 21.692,4.642 16.001,4.642 C9.374,4.642 4.002,10.014 4.002,16.64 C4.002,20.19 5.553,23.368 8.002,25.565 L8.002,30.481 C3.225,27.713 0.003,22.559 0.003,16.64 C0.003,7.805 7.165,0.643 16.001,0.643 C22.005,0.643 27.23,3.954 29.966,8.846 C30.63,8.733 31.303,8.641 31.999,8.641 C38.625,8.641 43.997,14.013 43.997,20.64 C43.997,25.863 40.655,30.293 35.998,31.941 Z M3.003,39.639 C4.107,39.639 5.002,40.534 5.002,41.639 C5.002,42.743 4.107,43.639 3.003,43.639 C1.899,43.639 1.003,42.743 1.003,41.639 C1.003,40.533 1.898,39.639 3.003,39.639 Z M13.001,22.641 C13.001,21.537 12.897,20.641 14.001,20.641 C15.105,20.641 15.001,21.537 15.001,22.641 L15.001,46.639 L13.001,46.639 L13.001,46.639 L13.001,46.639 C13.001,44.43 11.211,42.639 9.002,42.639 L9.002,40.639 C10.545,40.639 11.939,41.239 13.001,42.196 L13.001,22.641 Z M22,36.639 C20.896,36.639 21,35.744 21,34.639 L21,26.641 C21,25.536 20.896,24.641 22,24.641 C23.104,24.641 23,25.536 23,26.641 L23,34.639 C23,35.744 23.104,36.639 22,36.639 Z M22,40.639 C23.104,40.639 24,41.534 24,42.639 C24,43.743 23.104,44.639 22,44.639 C20.896,44.639 20,43.743 20,42.639 C20,41.533 20.896,40.639 22,40.639 Z M29.999,20.641 C31.103,20.641 30.999,21.537 30.999,22.641 L30.999,40.657 C32.822,38.223 35.722,36.639 38.998,36.639 L38.998,38.639 C34.58,38.639 30.999,42.221 30.999,46.639 L28.999,46.639 C28.999,46.366 29.019,46.098 29.04,45.832 C28.986,45.498 28.999,45.088 28.999,44.639 L28.999,22.641 C28.999,21.537 28.895,20.641 29.999,20.641 Z" id="Shape"></path>
                </g>
            </g>
        </g>
    </g>
</svg>