<?xml version="1.0" encoding="UTF-8" standalone="no"?>
<svg width="34px" height="24px" viewBox="0 0 34 24" version="1.1" xmlns="http://www.w3.org/2000/svg" xmlns:xlink="http://www.w3.org/1999/xlink">
    <!-- Generator: Sketch 43.1 (39012) - http://www.bohemiancoding.com/sketch -->
    <title>celsius</title>
    <desc>Created with Sketch.</desc>
    <defs></defs>
    <g id="Page-1" stroke="none" stroke-width="1" fill="none" fill-rule="evenodd">
        <g id="weather-app" transform="translate(-267.000000, -523.000000)" fill-rule="nonzero" fill="#FFFFFF">
            <g id="Unit-icons" transform="translate(267.000000, 523.000000)">
                <g id="celsius">
                    <path d="M25.999,4.001 C23.79,4.001 21.999,5.792 21.999,8.001 L21.999,16 C21.999,18.209 23.79,19.999 25.999,19.999 C28.208,19.999 29.999,18.209 29.999,16 L33.997,16 C33.997,20.418 30.417,23.999 25.999,23.999 C21.581,23.999 17.999,20.418 17.999,16 L17.999,8.001 C17.999,3.583 21.581,0.002 25.999,0.002 C30.417,0.002 33.997,3.583 33.997,8.001 L29.999,8.001 C29.999,5.792 28.208,4.001 25.999,4.001 Z M7,14 C3.135,14 0.002,10.866 0.002,7.001 C0.002,3.136 3.135,0.002 7,0.002 C10.866,0.002 14,3.136 14,7.001 C14,10.866 10.867,14 7,14 Z M7,4.001 C5.344,4.001 4.001,5.345 4.001,7.001 C4.001,8.657 5.344,10.001 7,10.001 C8.657,10.001 10,8.657 10,7.001 C10,5.345 8.658,4.001 7,4.001 Z" id="Shape"></path>
                </g>
            </g>
        </g>
    </g>
</svg>